<svg width="45" height="44" viewBox="0 0 45 44" xmlns="http://www.w3.org/2000/svg">
	<path d="m2.3257 44c-0.41638 0-0.81962-0.1632-1.1291-0.4727-0.45014-0.4501-0.59268-1.101-0.36949-1.6975l9.3834-25.262c0.1369-0.3676 0.5477-0.5552 0.9153-0.4183s0.5551 0.5458 0.4182 0.9154l-9.3852 25.26c-0.03376 0.0919 0.00375 0.1576 0.04314 0.1951 0.03939 0.0394 0.10316 0.0769 0.19506 0.0431l25.26-9.3841c0.3695-0.1369 0.7784 0.0507 0.9153 0.4183s-0.0506 0.7784-0.4182 0.9153l-25.262 9.3841c-0.18568 0.0694-0.37698 0.1032-0.56641 0.1032z" fill="#333"/>
	<path d="m27.192 34.667c-2.6558 0-6.9827-2.9524-10.588-6.5556-4.5201-4.5204-8.0142-10.179-5.9455-12.248 0.5664-0.5664 1.7499-1.0241 4.175 0.0132 0.362 0.1538 0.5289 0.572 0.3751 0.9341-0.1538 0.362-0.572 0.5289-0.934 0.3732-1.5098-0.6452-2.3388-0.5871-2.6089-0.3151-0.874 0.8741 1.0072 5.2988 5.9455 10.238s9.3608 6.8201 10.237 5.946c0.2757-0.2757 0.332-1.1198-0.3376-2.6616-0.1556-0.3602 0.0094-0.7784 0.3695-0.936 0.362-0.1557 0.7784 0.0094 0.9359 0.3695 1.0691 2.4628 0.6114 3.6614 0.0394 4.2335-0.4201 0.4201-0.9865 0.6096-1.6617 0.6096h-0.0019z" fill="#333"/>
	<path d="m21.132 37.066c-0.0844 0-0.1707-0.015-0.2532-0.0469-2.2657-0.8647-5.0677-2.8642-7.6916-5.4883-1.4104-1.4105-2.6783-2.9186-3.6686-4.3629-0.22131-0.3245-0.13879-0.7671 0.1838-0.9884 0.3245-0.2233 0.7671-0.1388 0.9884 0.1838 0.9415 1.373 2.1513 2.8135 3.4998 4.1621 2.4495 2.4497 5.139 4.3817 7.1927 5.1657 0.3676 0.1407 0.5514 0.5514 0.4108 0.9172-0.1088 0.2832-0.3789 0.4577-0.664 0.4577h0.0019z" fill="#333"/>
	<path d="m15.681 39.089c-0.0769 0-0.1556-0.0131-0.2344-0.0393-1.8362-0.6397-3.963-2.0783-5.833-3.9484-0.86463-0.8647-1.6317-1.7744-2.2825-2.7047-0.22507-0.3226-0.14629-0.7653 0.17442-0.9904 0.3226-0.227 0.76523-0.1463 0.99029 0.1744 0.60393 0.8629 1.3185 1.7088 2.1231 2.5135 1.7237 1.7237 3.6536 3.0405 5.2947 3.6107 0.3714 0.1294 0.5664 0.5346 0.4389 0.9059-0.1032 0.2927-0.377 0.4783-0.6715 0.4783z" fill="#333"/>
	<path d="m9.9835 41.125c-0.0769 0-0.15567-0.0132-0.23257-0.0394-1.2772-0.4446-2.5939-1.2999-3.7061-2.4122-0.29446-0.2945-0.57392-0.6058-0.83274-0.9266-0.2457-0.3057-0.19694-0.754 0.10878-0.9997 0.30571-0.2457 0.75397-0.197 0.99966 0.1088 0.22507 0.2795 0.47077 0.5533 0.72959 0.8122 0.96403 0.9622 2.0875 1.6993 3.1678 2.0745 0.3713 0.1294 0.5664 0.5345 0.4388 0.9059-0.1012 0.2945-0.3769 0.4783-0.6714 0.4783l-0.00187-0.0018z" fill="#333"/>
	<path d="m37.232 33.4c-1.4798 0-2.8677-0.9265-3.3835-2.4008-0.1294-0.3714 0.0657-0.7766 0.437-0.906 0.3714-0.1294 0.7765 0.0657 0.9059 0.437 0.392 1.1236 1.6261 1.7182 2.7477 1.3262 1.658-0.5796 2.5357-2.3972 1.9562-4.0553l-0.1276-0.3676c-0.5307-1.5212-2.0181-2.5022-3.6216-2.3859l-0.4614 0.0731c-3.5748 0.5702-6.9508 2.0783-9.7604 4.361-0.3057 0.2476-0.7521 0.2007-0.9996-0.1031-0.2476-0.3058-0.2007-0.7522 0.1031-0.9998 3.0046-2.4384 6.6113-4.0515 10.432-4.6611l0.4914-0.0788c0.0187-0.0037 0.0375-0.0056 0.0563-0.0075 2.2637-0.1782 4.3569 1.1949 5.1033 3.3331l0.1276 0.3677c0.8365 2.3971-0.4333 5.0287-2.8302 5.8671-0.3883 0.1351-0.7859 0.2007-1.176 0.2007z" fill="#333"/>
	<path d="m15.601 19.972c-0.1575 0-0.3151-0.0526-0.4482-0.1595-0.3058-0.2476-0.3508-0.6958-0.1032-0.9997 1.5623-1.9245 2.5939-4.2353 2.984-6.6831l0.0488-0.3114c0.0675-1.0147-0.5533-1.9526-1.5136-2.2883l-0.2551-0.09004c-1.0372-0.36388-2.1794 0.18757-2.5432 1.2268-0.1126 0.3226-0.0938 0.6715 0.0562 0.9809 0.1501 0.3095 0.4089 0.5402 0.7334 0.6547 0.3713 0.1294 0.5664 0.5345 0.437 0.9059s-0.5345 0.5665-0.9059 0.4371c-0.6827-0.2383-1.2304-0.7278-1.5455-1.3787-0.3132-0.6508-0.3563-1.3861-0.1181-2.067 0.6208-1.78 2.5732-2.7216 4.355-2.1008l0.2551 0.09004c1.5792 0.55145 2.592 2.1007 2.4626 3.7682 0 0.0188-0.0038 0.0375-0.0075 0.0563l-0.0544 0.3414c-0.4314 2.6954-1.5661 5.2388-3.286 7.3546-0.1406 0.1725-0.3451 0.2626-0.5533 0.2626h0.0019z" fill="#333"/>
	<path d="m44.289 9.1684c-0.1819 0-0.3638-0.0694-0.5026-0.2082l-2.2206-2.2208c-0.2776-0.2776-0.2776-0.72777 0-1.0054 0.2775-0.2776 0.7277-0.2776 1.0052 0l2.2207 2.2208c0.2776 0.2776 0.2776 0.72777 0 1.0054-0.1388 0.1388-0.3207 0.2082-0.5027 0.2082z" fill="#333"/>
	<path d="m42.068 9.1684c-0.1819 0-0.3639-0.0694-0.5026-0.2082-0.2776-0.2776-0.2776-0.72777 0-1.0054l2.2206-2.2208c0.2776-0.2776 0.7277-0.2776 1.0053 0s0.2776 0.72777 0 1.0054l-2.2207 2.2208c-0.1387 0.1388-0.3207 0.2082-0.5026 0.2082z" fill="#333"/>
	<path d="m23.339 3.6426c-0.1819 0-0.3638-0.06941-0.5026-0.20821l-2.2207-2.2208c-0.2776-0.2776-0.2776-0.72777 0-1.0054 0.2776-0.2776 0.7277-0.2776 1.0053 0l2.2207 2.2208c0.2775 0.2776 0.2775 0.72777 0 1.0054-0.1388 0.1388-0.3208 0.20821-0.5027 0.20821z" fill="#333"/>
	<path d="m21.119 3.6426c-0.182 0-0.3639-0.06941-0.5027-0.20821-0.2776-0.2776-0.2776-0.72777 0-1.0054l2.2207-2.2208c0.2776-0.2776 0.7277-0.2776 1.0053 0 0.2775 0.2776 0.2775 0.72777 0 1.0054l-2.2207 2.2208c-0.1388 0.1388-0.3207 0.20821-0.5026 0.20821z" fill="#333"/>
	<path d="m31.933 42.235c-0.182 0-0.3639-0.0694-0.5027-0.2082l-2.2206-2.2209c-0.2776-0.2776-0.2776-0.7277 0-1.0053s0.7277-0.2776 1.0053 0l2.2206 2.2208c0.2776 0.2776 0.2776 0.7278 0 1.0054-0.1388 0.1388-0.3207 0.2082-0.5026 0.2082z" fill="#333"/>
	<path d="m29.712 42.235c-0.1819 0-0.3638-0.0694-0.5026-0.2082-0.2776-0.2776-0.2776-0.7278 0-1.0054l2.2206-2.2208c0.2776-0.2776 0.7277-0.2776 1.0053 0s0.2776 0.7277 0 1.0053l-2.2206 2.2209c-0.1388 0.1388-0.3208 0.2082-0.5027 0.2082z" fill="#333"/>
	<path d="m2.9315 18.862c-0.18193 0-0.36386-0.0694-0.50265-0.2082l-2.2206-2.2209c-0.27758-0.2776-0.27758-0.7277 0-1.0053 0.27758-0.2776 0.72771-0.2776 1.0053 0l2.2206 2.2208c0.27758 0.2776 0.27758 0.7278 0 1.0054-0.13879 0.1388-0.32072 0.2082-0.50265 0.2082z" fill="#333"/>
	<path d="m0.71083 18.862c-0.18193 0-0.36386-0.0694-0.50265-0.2082-0.27758-0.2776-0.27758-0.7278 0-1.0054l2.2206-2.2208c0.27758-0.2776 0.72772-0.2776 1.0053 0s0.27758 0.7277 0 1.0053l-2.2206 2.2209c-0.13879 0.1388-0.32072 0.2082-0.50265 0.2082z" fill="#333"/>
	<path d="m20.884 24.459c-0.1819 0-0.3638-0.0694-0.5026-0.2082-0.2776-0.2776-0.2776-0.7277 0-1.0053l10.863-10.864c0.2775-0.2777 0.7277-0.2777 1.0052 0 0.2776 0.2776 0.2776 0.7277 0 1.0053l-10.863 10.864c-0.1388 0.1388-0.3207 0.2082-0.5027 0.2082z" fill="#333"/>
	<path d="m33.887 11.455c-0.1819 0-0.3638-0.0695-0.5026-0.2083-0.2776-0.2776-0.2776-0.7277 0-1.0053l1.341-1.3411c0.2776-0.27761 0.7277-0.27761 1.0053 0 0.2775 0.2776 0.2775 0.72777 0 1.0054l-1.341 1.3411c-0.1388 0.1388-0.3208 0.2083-0.5027 0.2083z" fill="#333"/>
	<path d="m37.286 8.058c-0.1819 0-0.3639-0.0694-0.5026-0.2082-0.2776-0.2776-0.2776-0.72777 0-1.0054l0.1631-0.16319c0.2776-0.2776 0.7277-0.2776 1.0053 0 0.2776 0.27761 0.2776 0.72777 0 1.0054l-0.1631 0.16318c-0.1388 0.1388-0.3208 0.2082-0.5027 0.2082z" fill="#333"/>
	<path d="m18.243 22.219c-0.1406 0-0.285-0.0412-0.4088-0.1294-0.3208-0.2269-0.3976-0.6696-0.1726-0.9903l6.2793-8.9265c0.227-0.3207 0.6696-0.3995 0.9903-0.1725 0.3208 0.2269 0.3977 0.6696 0.1726 0.9903l-6.2793 8.9265c-0.1388 0.1969-0.3583 0.3019-0.5833 0.3019h0.0018z" fill="#333"/>
	<path d="m25.761 11.536c-0.1406 0-0.285-0.0413-0.4088-0.1294-0.3207-0.2251-0.3976-0.6696-0.1726-0.9904l0.7746-1.1029c0.2251-0.32074 0.6696-0.39952 0.9903-0.17256 0.3207 0.22508 0.3976 0.66962 0.1726 0.99035l-0.7746 1.1029c-0.1388 0.197-0.3583 0.302-0.5833 0.302h0.0018z" fill="#333"/>
	<path d="m27.724 8.7445c-0.1407 0-0.2833-0.04126-0.4089-0.12942-0.3207-0.22508-0.3995-0.66962-0.1726-0.99036l0.0938-0.13318c0.2251-0.32074 0.6696-0.39952 0.9903-0.17256 0.3207 0.22508 0.3995 0.66962 0.1726 0.99036l-0.0938 0.13318c-0.1388 0.19695-0.3583 0.30198-0.5833 0.30198h0.0019z" fill="#333"/>
	<path d="m23.009 26.984c-0.2232 0-0.4445-0.105-0.5833-0.302-0.225-0.3207-0.1481-0.7652 0.1726-0.9903l8.9257-6.2799c0.3207-0.2269 0.7652-0.1481 0.9903 0.1726 0.2251 0.3208 0.1482 0.7653-0.1725 0.9904l-8.9258 6.2798c-0.1238 0.0882-0.2663 0.1294-0.4088 0.1294h0.0018z" fill="#333"/>
	<path d="m33.692 19.466c-0.2232 0-0.4445-0.105-0.5833-0.3019-0.225-0.3208-0.1481-0.7653 0.1726-0.9904l1.1009-0.7747c0.3208-0.2269 0.7653-0.1482 0.9903 0.1726 0.2251 0.3207 0.1482 0.7653-0.1725 0.9904l-1.101 0.7746c-0.1238 0.0882-0.2663 0.1294-0.4088 0.1294h0.0018z" fill="#333"/>
	<path d="m36.483 17.502c-0.2232 0-0.4445-0.105-0.5814-0.302-0.2269-0.3207-0.15-0.7653 0.1725-0.9904l0.1332-0.0937c0.3207-0.227 0.7652-0.1482 0.9903 0.1725 0.2269 0.3208 0.15 0.7653-0.1726 0.9904l-0.1331 0.0938c-0.1238 0.0881-0.2663 0.1294-0.4089 0.1294z" fill="#333"/>
</svg>