<svg height="380pt" preserveAspectRatio="xMidYMid meet" viewBox="0 0 380 380" width="380pt" xmlns="http://www.w3.org/2000/svg"><g transform="matrix(.1 0 0 -.1 0 380)"><path d="m705 2680c-42-17-68-58-68-102 1-29 77-251 237-696 130-359 242-665 251-681 25-49 62-71 117-71 90 0 95 10 243 440 278 810 262 767 273 740 5-14 94-272 198-575 210-612 206-605 290-605 56 0 90 16 113 54 11 17 87 220 171 451 83 231 190 526 237 655s88 254 91 277c6 53-15 89-66 110-45 19-104 4-128-31-8-13-76-203-150-422-75-220-164-482-199-584s-66-178-69-170-67 202-141 430c-75 228-159 484-187 568-29 89-60 165-74 182-46 54-156 48-192-11-7-11-101-280-208-597-107-316-196-577-198-579s-90 254-196 569-201 587-212 605c-26 44-85 63-133 43z"/><path d="m2945 1445c-120-43-151-181-61-271 46-46 91-61 153-49 49 9 108 68 122 123 35 127-90 242-214 197z"/></g></svg>