<svg width="636" height="592" viewBox="0 0 636 592" fill="none" xmlns="http://www.w3.org/2000/svg">
<path fill="#D4DBE0" fill-rule="evenodd" clip-rule="evenodd" d="M126.533 43.1682C122.763 28.6607 118.687 12.9794 123 1C133.217 -0.277082 139.845 4.2357 146.947 9.07084C150.968 11.8078 155.14 14.6481 160.2 16.6C169.295 20.1025 177.848 24.7857 186.417 29.4779C193.016 33.0918 199.626 36.7109 206.5 39.8C220.927 46.4641 235.827 52.7978 250.712 59.1254C257.493 62.008 264.271 64.8893 271 67.8C274.264 69.1846 277.571 70.6669 280.896 72.1575C287.658 75.1886 294.497 78.2538 301.2 80.6C301.917 80.8541 302.686 81.1037 303.481 81.3618C308.006 82.831 313.384 84.5771 315 89C323.329 89.5272 330.658 93.8062 337.939 98.0572C344.469 101.87 350.96 105.66 358.1 106.7C360.492 107.015 362.488 105.943 364.512 104.855C365.703 104.216 366.903 103.57 368.2 103.2C373.6 102 381.2 100.1 384 95C390.24 94.5746 395.926 91.2833 401.452 88.0853C403.72 86.773 405.96 85.4765 408.2 84.4C412.643 82.2492 417.142 80.1625 421.65 78.0718C433.07 72.775 444.545 67.453 455.3 61C457.254 59.7533 459.731 58.6655 462.29 57.5416C467.325 55.3299 472.679 52.9783 475 49C479.402 48.4369 483.307 46.2229 487.237 43.9945C490.984 41.8698 494.754 39.7321 499 39V35C500.558 34.4889 502.927 33.2075 505.692 31.7126C514.284 27.0659 526.693 20.3557 530.4 28.3C531.578 30.8768 531.347 34.5376 531.143 37.7661C531.07 38.9228 531 40.024 531 41H528C527.703 54.6177 522.6 67.6223 517.499 80.6211C512.299 93.8725 507.101 107.118 507 121H504C503.133 131.488 499.591 141.913 496.171 151.982C495.254 154.682 494.346 157.357 493.5 160C489.868 171.914 486.683 184.113 483.505 196.285C481.695 203.218 479.887 210.142 478 217C480.884 217.98 482.998 220.351 485.132 222.744C486.92 224.749 488.721 226.769 491 228V233C498.741 235.192 506.342 244.424 513.094 252.626C516.198 256.396 519.123 259.949 521.8 262.5C528.959 269.308 536.017 276.177 543.066 283.039C558.074 297.646 573.047 312.22 588.9 326.1C591.699 328.543 594.123 331.322 596.549 334.104C599.583 337.583 602.621 341.066 606.4 343.9C616.361 351.479 625.36 360.243 633.2 370C635.2 372.6 635.8 377.6 634.4 380.6C631.097 387.668 614.456 385.883 603.201 384.676C599.806 384.312 596.901 384 595 384V381C577.827 381 560.616 379.637 543.414 378.276C532.269 377.393 521.127 376.511 510 376C498.182 375.527 486.364 375.962 474.545 376.398C466.364 376.699 458.182 377 450 377C436.7 377 423.2 377.2 410 378.7C408.955 378.816 407.717 378.789 406.414 378.76C403.228 378.691 399.658 378.613 397.6 380.6C395.945 382.189 395.473 384.787 395.024 387.261C394.795 388.523 394.572 389.753 394.2 390.8C392.392 395.785 391.155 400.89 389.912 406.016C388.886 410.248 387.857 414.495 386.5 418.7C376.822 449.859 371.354 482.937 365.955 515.596C364.492 524.443 363.035 533.26 361.5 542C359.6 552.4 357.8 563.6 357 574C356.974 574.441 356.949 574.886 356.924 575.334C356.478 583.408 355.991 592.227 345 590.9C340.218 590.302 337.915 585.985 335.788 581.997C335.424 581.315 335.065 580.643 334.7 580C334.093 578.968 333.481 577.924 332.865 576.872C328.407 569.262 323.708 561.241 318.7 554.3C298.5 526.8 278.3 498.8 259.7 470.5C257.977 467.86 256.076 464.331 254.015 460.504C248.659 450.563 242.221 438.61 235 435C233.778 430.502 231.432 426.41 229.085 422.316C226.631 418.036 224.175 413.753 223 409C198.927 409 175.714 414.556 152.661 420.073C147.368 421.34 142.084 422.605 136.8 423.8C127.085 425.927 117.23 427.679 107.382 429.431C96.854 431.304 86.3336 433.175 76 435.5C70.5177 436.762 65.0248 438.155 59.513 439.553C40.9962 444.249 22.2653 449 2.99999 449C2.79106 447.412 2.23296 445.929 1.67583 444.449C0.89963 442.386 0.12534 440.329 0.299987 438C0.999986 430.5 12.1 419 19 417V413C24.2647 410.128 28.2204 404.171 31.9539 398.549C33.681 395.948 35.3605 393.419 37.1 391.3C42.1998 385.105 47.6563 379.123 53.1192 373.135C62.1176 363.272 71.1331 353.389 78.6 342.5C80.6425 339.533 83.3237 337.07 85.9909 334.62C90.2448 330.713 94.4634 326.839 96 321C97.7995 320.057 99.1951 318.693 100.58 317.338C102.428 315.531 104.257 313.743 107 313C107.846 307.078 111.945 303.227 116.067 299.353C117.305 298.19 118.545 297.024 119.7 295.8C121.489 293.944 123.28 292.092 125.072 290.238C134 281.006 142.939 271.761 151.6 262.1C152.693 260.893 153.874 259.754 155.047 258.622C159.028 254.782 162.923 251.024 163 245C163.064 239.724 161.763 235.317 160.426 230.794C159.686 228.288 158.935 225.746 158.4 223L153.2 190.8C144.4 148.4 136.3 104.8 130.7 62C129.943 56.2901 128.27 49.8538 126.533 43.1682ZM160 73H163C164.886 59.4186 174.601 62.1157 183.417 64.5637C183.949 64.7112 184.477 64.8579 185 65C185 77 175.7 89.5 163 85V81H160V73ZM471.981 85.7459C471.915 78.4328 471.858 71.9831 475 65C481.6 64.2 490.5 63.9 489 73C492.08 75.6183 491.603 81.9134 491.22 86.9531C491.106 88.4577 491 89.8504 491 91L490.987 91.0053C484.597 93.7014 481.995 94.7988 475 93V89H472C472 87.8941 471.99 86.8108 471.981 85.7459ZM233.232 78.0749C233.918 76.7434 234.608 75.4037 235 74C242.604 74 246.47 77.7743 250.606 81.8116C253.269 84.4112 256.044 87.1199 260 89C262.8 112 237 100 231.7 86.7C230.42 83.5343 231.817 80.8222 233.232 78.0749ZM365.082 132.036C363.739 132.018 362.38 132 361 132C360.677 131.118 360.224 130.184 359.755 129.219C358.63 126.9 357.418 124.4 357.7 122C358.698 112.659 371.951 112.858 379.78 112.977C380.584 112.989 381.33 113 382 113C382.305 113.574 382.597 114.115 382.875 114.63C385.6 119.687 387 122.285 387 129C379.775 132.23 372.694 132.136 365.082 132.036ZM451.962 142.223C453.043 145.725 454 148.824 454 153C449.623 154.532 446.109 158.515 442.576 162.519C438.037 167.665 433.467 172.844 427 172.9C418.3 173 415.7 164.1 420.2 157.6C427.6 147 438.3 139 451 139C451.317 140.134 451.645 141.196 451.962 142.223ZM213 167.6C204.9 161.3 200 155.3 200 145C200.83 144.585 201.618 144.139 202.389 143.703C205.332 142.038 208.038 140.508 212 141.3C220.1 142.9 232.6 158.5 227.4 166.6C224.6 171.2 216.6 170.4 213 167.6ZM285.646 196.089C284.72 196.044 283.826 196 283 196C282.858 195.616 282.696 195.185 282.519 194.712C278.955 185.199 268.997 158.62 281 155C283.325 154.316 285.65 155.175 287.911 156.011C288.956 156.397 289.988 156.779 291 157V161H294C294 163.345 294.851 166.893 295.799 170.848C298.085 180.385 300.94 192.29 293.8 195.4C291.476 196.375 288.42 196.225 285.646 196.089ZM387.517 216.769C387.996 221.341 388.439 225.572 387 231C386.066 231.078 385.058 231.25 384.02 231.427C381.056 231.933 377.844 232.481 375.4 231C372.428 229.188 371.821 226.378 371.178 223.408C370.934 222.28 370.685 221.128 370.3 220C369.469 217.624 368.399 215.354 367.335 213.096C364.815 207.75 362.327 202.468 363.1 196C363.9 189.7 370.2 187.3 375.9 190C379.307 191.653 380.329 195.365 381.381 199.186C382.429 202.991 383.507 206.904 387 209C387 211.837 387.263 214.351 387.517 216.769ZM233.063 265.149C231.554 257.207 230.096 249.534 232 241C247.9 238 249.6 249.8 251.3 263C251.366 263.502 251.444 264.043 251.527 264.612C252.202 269.252 253.152 275.782 249.5 278.9C245.461 282.236 240.96 280.408 236.74 278.694C236.154 278.455 235.573 278.22 235 278C234.657 273.535 233.853 269.305 233.063 265.149ZM318.126 284.983C318.313 281.18 318.49 277.573 323 275.7C332.9 271.8 337.2 280.8 336.9 289C336.7 299 330.8 310.7 320.9 314.4C303.903 320.816 311.828 303.002 315.813 294.047C316.61 292.255 317.25 290.817 317.5 290C317.959 288.377 318.044 286.661 318.126 284.983ZM507 318C495.7 318.9 491.5 317.3 492 305H495C495 301.348 493.458 297.8 491.953 294.338C490.161 290.215 488.422 286.213 489.4 282.3C493 268.7 508 280.7 511.4 287.7C516.322 297.641 511.557 308.048 507.443 317.032C507.294 317.357 507.146 317.679 507 318ZM413.429 302.996C413.972 300.871 414.464 298.949 417.4 297.8C435.9 290.2 432.4 320.7 419.4 325.9C410.6 329.5 399.4 323.9 403.6 313.3C404.431 311.029 406.243 310.231 408.069 309.427C409.54 308.779 411.019 308.128 412 306.7C412.796 305.47 413.121 304.201 413.429 302.996ZM155.226 347.573C153.611 346.743 151.897 345.862 150 345L150.1 339C150.722 330.362 155.642 331.227 160.932 332.157C163.298 332.573 165.737 333.002 167.9 332.6C169.492 332.335 171.214 331.574 172.985 330.792C177.221 328.921 181.733 326.928 185.4 331.3C191.5 338.6 183.6 347.7 176.8 350.2C167.1 353.676 162.039 351.075 155.226 347.573ZM579.25 350.411C579.158 351.272 579.065 352.136 579 353C577.924 353.183 576.91 353.398 575.929 353.606C572.629 354.305 569.701 354.925 566 354C564.635 353.628 563.116 353.495 561.585 353.361C559.414 353.171 557.218 352.98 555.4 352.1C548.5 348.8 548.5 339.4 554.1 334.8C560.8 329.2 575.9 332.6 578.9 341.2C579.919 344.179 579.586 347.282 579.25 350.411ZM89.3 375.7C87.2 372 86.5 365 90.5 362V362.1C98.4 356.5 117.4 371.5 121 378.1C123.4 382.5 124 388.7 119.3 391.7C111.3 396.8 92.9 382.4 89.3 375.7ZM270.4 382.8C267.7 378.1 264.3 368.9 270.3 365.1V365C273.7 362.9 279.4 364.3 282.2 366.7C284.232 368.478 285.412 370.952 286.606 373.455C287.762 375.879 288.932 378.33 290.9 380.2C292.367 381.566 295.275 383.118 298.539 384.86C308.177 390.004 320.927 396.809 308.9 405.4C295.9 414.6 276 392.5 270.4 382.8ZM339.3 439.2C342.4 425.2 367.8 415 368 436C364.544 437.566 362.021 440.532 359.486 443.512C357.327 446.05 355.16 448.598 352.4 450.3C345.6 454.6 337.8 446 339.3 439.2ZM302.127 466.974C302.437 466.304 302.742 465.645 303 465C303.478 464.943 303.963 464.88 304.452 464.816C308.259 464.318 312.333 463.785 315.7 466C321.4 469.7 327.9 485.8 321.6 491.1C311.2 500 300.3 481.7 300.3 473C300.3 470.923 301.236 468.9 302.127 466.974Z"/>
</svg>
