<svg xmlns="http://www.w3.org/2000/svg" width="20" height="20" class="img-fluid" style="transform:matrix(1,0,0,1,0,0);transform-origin:50% 50%0;cursor:move;max-height:none;transition:none" viewBox="0 0 1800 1800"><g fill="#1f7e45" style="transform:none;transform-origin:50% 50%0"><path d="M0 1076c0-765 2-802 47-890C89 104 164 44 258 18 320 1 377 0 1062 0h738v724c0 765-2 802-47 890-42 82-117 142-211 168-62 17-119 18-804 18H0zm378-101 2-259 27-28 27-28h-32c-18 0-32-4-32-10 0-5-9-19-20-30s-24-20-30-20c-12 0-14 622-3 634 4 4 19 6 33 4l25-3zm462 27c0-191-3-248-16-285-27-78-110-137-196-137-37 0-132 36-160 61l-23 20 25-12c35-17 197-17 238 0 59 25 62 42 62 324 0 139 3 257 7 260 3 4 19 7 35 7h28zm471 226c98-33 168-121 156-195-14-81-85-134-236-174-106-29-131-49-138-112-12-102 33-137 171-137 64 1 91 5 129 24 41 20 48 21 45 7-2-9-28-28-58-43-77-38-167-39-236-2-67 35-80 49-100 101-17 43-17 46 4 88 30 62 85 98 188 124 112 28 142 45 160 86 31 75 9 161-49 188-61 29-196 21-289-18-27-11-23 22 5 36 68 37 183 50 248 27" style="transform:none"/></g><g fill="#fff" style="transform:none;transform-origin:50% 50%0"><g style="transform:none"><path d="M285 1258c-3-7-4-166-3-353l3-340 25-1c27-1 80 22 80 34 0 4 4 13 9 21 7 12 14 10 36-7 43-34 130-62 193-62 80 0 127 16 172 56 65 59 70 89 70 396v269l-62-3-63-3-5-265c-3-146-9-273-14-283-15-31-66-50-136-49-72 1-124 18-157 54-22 23-23 31-25 283l-3 260-58 3c-40 2-59-1-62-10M1092 1255c-91-28-110-60-77-125 18-36 19-36 57-9 66 47 181 63 245 32 72-34 78-132 11-173-17-10-71-28-119-40-56-14-104-33-129-51-77-56-101-154-57-239 55-108 237-149 382-85 66 29 79 46 72 92-9 52-22 61-55 41-91-58-174-73-244-43-63 26-72 103-16 139 13 8 59 24 103 36 107 29 163 57 199 103 42 52 49 144 16 212-23 48-78 93-139 113-45 16-195 14-249-3"/></g></g></svg>