<svg class="img-fluid" id="outputsvg" xmlns="http://www.w3.org/2000/svg" style="transform: none; transform-origin: 50% 50%; cursor: move; max-height: none;" width="20" height="20" viewBox="0 0 3600 3600"><g id="l2VP4zVGZiwWnLuVpFHhuC0" fill="none" style="transform: none;"><g style="transform: none;"><path id="p15bF5HHX7" d="M0 1800 l0 -1800 1800 0 1800 0 0 1800 0 1800 -1800 0 -1800 0 0 -1800z m1914 1554 c52 -33 92 -88 106 -145 7 -32 70 -883 70 -958 0 -6 17 -11 40 -11 29 0 40 4 40 15 0 9 36 136 81 283 44 147 92 305 106 351 l25 84 148 -148 147 -147 -124 -197 c-69 -108 -151 -236 -183 -286 -31 -49 -64 -102 -74 -117 -9 -16 -23 -28 -31 -28 -20 0 -194 173 -232 230 -49 73 -99 170 -127 244 -32 84 -66 214 -66 251 0 24 -3 26 -36 23 l-37 -3 -17 -85 c-25 -120 -82 -280 -101 -280 -4 0 -18 15 -30 33 -13 17 -26 34 -29 37 -3 3 -21 25 -40 50 -43 55 -47 60 -104 131 l-45 57 108 233 c129 279 143 306 173 339 34 37 54 51 95 66 47 17 84 11 137 -22z m-674 -879 c19 -12 89 -57 155 -98 180 -114 165 -97 131 -146 -64 -92 -214 -215 -341 -279 -84 -42 -263 -100 -335 -108 l-60 -7 0 -33 c0 -27 5 -34 23 -38 159 -31 357 -95 357 -116 0 -5 -15 -19 -32 -31 -18 -13 -35 -26 -38 -29 -7 -8 -60 -50 -100 -80 -18 -14 -57 -44 -86 -67 l-52 -42 -238 110 c-132 61 -253 117 -270 125 -67 32 -124 103 -139 172 -16 76 77 188 176 211 33 9 880 71 956 71 10 0 13 10 11 36 l-3 37 -310 93 c-171 52 -334 101 -364 110 l-54 16 147 147 148 148 142 -89 c77 -50 157 -100 176 -113z m1731 -383 c296 -138 307 -144 346 -181 37 -35 57 -71 68 -119 16 -76 -77 -188 -176 -211 -24 -6 -248 -25 -498 -41 -250 -17 -458 -33 -463 -36 -15 -10 -9 -74 7 -74 15 0 663 -193 698 -208 14 -6 -9 -33 -130 -153 l-148 -147 -87 57 c-48 31 -137 88 -197 126 -249 157 -307 195 -326 208 -19 14 -19 15 9 56 64 92 218 216 351 284 74 37 256 96 320 103 l56 7 -3 35 -3 35 -85 17 c-120 25 -280 82 -280 101 0 4 15 18 33 30 17 13 34 26 37 29 3 3 25 21 50 40 62 48 68 53 130 104 30 25 55 45 56 45 0 1 106 -48 235 -107z m-1528 -634 c52 -51 108 -113 124 -138 87 -129 173 -341 188 -464 l7 -57 37 3 c30 2 37 7 39 28 12 99 92 340 112 340 5 0 19 -15 31 -32 13 -18 26 -35 29 -38 3 -3 21 -25 40 -50 43 -55 47 -60 104 -131 l45 -57 -108 -233 c-137 -296 -143 -307 -180 -346 -35 -37 -71 -57 -119 -68 -77 -16 -189 78 -211 177 -8 34 -71 889 -71 957 0 8 -13 11 -36 9 l-37 -3 -93 -310 c-52 -171 -101 -334 -110 -364 l-16 -54 -147 147 -148 148 89 142 c50 77 100 157 113 176 34 53 166 262 182 288 7 12 20 22 28 22 8 0 57 -42 108 -92z"></path></g></g><g id="l6tynz342MeQqEFUvdCmsLE" fill="rgb(160,160,160)" style="transform: none;"><g style="transform: none;"><path id="p1Ah2kun88" d="M1747 3406 c-60 -22 -104 -64 -139 -131 -42 -80 -248 -530 -248 -541 0 -10 29 -50 113 -154 7 -8 28 -35 47 -60 19 -25 37 -47 40 -50 3 -3 19 -22 35 -44 69 -89 59 -87 93 -20 38 77 79 199 94 282 12 72 28 104 28 58 0 -15 9 -62 20 -105 51 -203 135 -361 262 -497 57 -60 171 -154 188 -154 9 0 18 14 314 480 l136 214 -177 178 c-98 98 -180 178 -184 178 -6 0 -230 -738 -229 -757 0 -7 -4 -13 -10 -13 -5 0 -10 8 -10 18 0 9 -4 80 -10 157 -5 77 -12 181 -15 230 -3 50 -7 113 -10 140 -2 28 -7 95 -10 150 -14 253 -22 299 -63 356 -59 82 -174 119 -265 85z"></path><path id="pfB9Q6Zcz" d="M735 2550 c-98 -99 -177 -181 -175 -184 3 -2 174 -55 380 -117 206 -62 379 -116 385 -121 5 -4 -13 -8 -40 -9 -28 0 -57 -2 -66 -4 -8 -1 -71 -6 -140 -9 -68 -4 -140 -9 -159 -11 -19 -2 -82 -7 -140 -10 -58 -3 -130 -8 -160 -10 -30 -2 -93 -7 -140 -10 -47 -4 -103 -11 -125 -17 -62 -16 -119 -63 -150 -124 -24 -47 -27 -63 -22 -113 2 -32 12 -72 21 -90 21 -40 79 -96 120 -115 219 -103 533 -246 542 -246 6 0 38 21 71 48 33 26 75 58 93 72 37 28 92 72 100 80 3 3 22 19 44 35 91 71 92 59 -5 104 -74 35 -159 60 -324 97 -25 6 -18 9 45 19 277 47 550 213 695 424 l29 43 -24 19 c-14 10 -47 32 -75 49 -27 16 -95 59 -150 94 -108 70 -355 227 -414 263 l-37 22 -179 -179z"></path><path id="pcIleHLsL" d="M2659 2190 c-35 -28 -71 -56 -79 -63 -8 -7 -35 -28 -60 -47 -25 -19 -47 -37 -50 -40 -3 -3 -31 -25 -62 -49 -32 -24 -58 -45 -58 -47 0 -2 26 -17 58 -33 75 -37 197 -78 280 -93 73 -12 104 -28 56 -28 -85 0 -308 -80 -436 -156 -87 -52 -242 -196 -293 -272 l-29 -44 24 -19 c14 -11 41 -29 60 -40 19 -10 87 -53 150 -94 63 -41 162 -104 220 -140 58 -37 136 -87 175 -111 l70 -44 177 177 c98 98 178 180 178 184 0 7 -738 230 -759 229 -9 0 -11 3 -5 9 5 5 47 12 94 15 80 6 123 9 305 21 41 3 109 7 150 10 41 3 109 7 150 10 180 12 232 17 270 27 62 16 119 63 150 124 24 47 27 63 22 113 -8 93 -54 159 -142 204 -90 46 -530 247 -541 247 -6 0 -40 -23 -75 -50z"></path><path id="pglpWdhBj" d="M1288 1573 c-14 -21 -58 -90 -98 -153 -40 -63 -83 -131 -95 -150 -13 -19 -69 -107 -124 -195 l-101 -160 177 -177 c98 -98 180 -178 184 -178 3 0 57 170 119 378 62 207 117 381 122 387 4 5 9 -13 10 -40 0 -28 2 -54 3 -60 1 -5 5 -66 9 -135 4 -69 9 -145 11 -170 2 -25 7 -88 10 -140 15 -250 25 -367 36 -419 14 -65 61 -124 125 -156 47 -24 63 -27 113 -22 93 8 159 54 204 142 46 90 247 530 247 541 0 10 -29 50 -113 154 -7 8 -28 35 -47 60 -19 25 -37 47 -40 50 -3 3 -19 22 -35 44 -71 91 -59 92 -104 -4 -39 -83 -91 -258 -91 -306 0 -48 -18 -32 -25 22 -15 123 -103 340 -187 462 -61 89 -245 262 -278 262 -4 0 -18 -17 -32 -37z"></path></g></g></svg>