<?xml version="1.0" encoding="UTF-8"?>
<svg xmlns="http://www.w3.org/2000/svg" xmlns:xlink="http://www.w3.org/1999/xlink" width="106px" height="49px" viewBox="0 0 105 49" version="1.1">
<g id="surface1">
<path style=" stroke:none;fill-rule:nonzero;fill:rgb(0%,47.843137%,20%);fill-opacity:1;" d="M 1.527344 7.238281 C 1.964844 7.238281 2.355469 7.347656 2.714844 7.570312 C 3.066406 7.789062 3.28125 8.167969 3.355469 8.707031 C 3.792969 8.265625 4.386719 7.871094 5.132812 7.523438 C 5.882812 7.175781 6.773438 7.007812 7.804688 7.007812 C 9.097656 7.007812 10.089844 7.292969 10.769531 7.871094 C 11.449219 8.441406 11.902344 9.160156 12.113281 10.023438 C 12.207031 10.402344 12.261719 10.832031 12.28125 11.300781 C 12.300781 11.769531 12.308594 12.226562 12.308594 12.667969 L 12.308594 20.832031 L 9.878906 20.832031 L 9.878906 12.753906 C 9.878906 12.386719 9.875 12.042969 9.867188 11.707031 C 9.859375 11.375 9.804688 11.0625 9.710938 10.769531 C 9.578125 10.273438 9.300781 9.886719 8.882812 9.621094 C 8.464844 9.359375 7.84375 9.222656 7.027344 9.222656 C 5.941406 9.222656 5.082031 9.4375 4.433594 9.867188 C 3.785156 10.296875 3.460938 10.765625 3.460938 11.261719 L 3.460938 20.832031 L 1.042969 20.832031 L 1.042969 7.265625 L 1.183594 7.265625 C 1.222656 7.265625 1.269531 7.257812 1.339844 7.25 C 1.40625 7.238281 1.472656 7.238281 1.527344 7.238281 Z M 1.527344 7.238281 "/>
<path style=" stroke:none;fill-rule:nonzero;fill:rgb(0%,47.843137%,20%);fill-opacity:1;" d="M 21.132812 19.167969 C 21.683594 19.167969 22.164062 19.113281 22.574219 18.996094 C 22.984375 18.882812 23.335938 18.738281 23.625 18.570312 C 23.921875 18.398438 24.171875 18.222656 24.378906 18.039062 C 24.589844 17.855469 24.757812 17.6875 24.894531 17.539062 C 25.101562 17.808594 25.289062 18.09375 25.453125 18.398438 C 25.613281 18.707031 25.695312 18.945312 25.695312 19.121094 C 25.695312 19.277344 25.648438 19.433594 25.554688 19.601562 C 25.460938 19.773438 25.296875 19.933594 25.066406 20.113281 C 24.628906 20.445312 24.070312 20.714844 23.382812 20.941406 C 22.703125 21.164062 21.871094 21.273438 20.902344 21.273438 C 20.003906 21.273438 19.167969 21.144531 18.375 20.886719 C 17.585938 20.628906 16.890625 20.214844 16.296875 19.636719 C 15.703125 19.058594 15.230469 18.3125 14.886719 17.382812 C 14.539062 16.449219 14.371094 15.316406 14.371094 13.976562 C 14.371094 12.769531 14.542969 11.722656 14.894531 10.847656 C 15.246094 9.964844 15.710938 9.242188 16.277344 8.671875 C 16.84375 8.109375 17.496094 7.695312 18.230469 7.421875 C 18.96875 7.152344 19.722656 7.023438 20.496094 7.023438 C 21.46875 7.023438 22.296875 7.183594 22.992188 7.511719 C 23.6875 7.835938 24.253906 8.269531 24.691406 8.820312 C 25.128906 9.363281 25.453125 10.003906 25.660156 10.71875 C 25.878906 11.417969 25.984375 12.164062 25.984375 12.925781 C 25.984375 13.195312 25.976562 13.46875 25.972656 13.746094 C 25.964844 14.023438 25.9375 14.289062 25.902344 14.535156 L 16.910156 14.535156 C 16.964844 15.925781 17.335938 17.042969 18.007812 17.890625 C 18.683594 18.738281 19.730469 19.167969 21.132812 19.167969 Z M 23.558594 12.699219 C 23.558594 12.183594 23.503906 11.703125 23.402344 11.261719 C 23.296875 10.820312 23.121094 10.433594 22.878906 10.097656 C 22.632812 9.765625 22.304688 9.5 21.898438 9.3125 C 21.488281 9.121094 20.996094 9.027344 20.410156 9.027344 C 19.425781 9.027344 18.617188 9.351562 17.984375 10.003906 C 17.347656 10.65625 16.992188 11.550781 16.917969 12.707031 L 23.558594 12.707031 Z M 23.558594 12.699219 "/>
<path style=" stroke:none;fill-rule:nonzero;fill:rgb(0%,47.843137%,20%);fill-opacity:1;" d="M 35.039062 17.929688 C 35 17.984375 34.910156 18.078125 34.769531 18.214844 C 34.628906 18.351562 34.453125 18.488281 34.242188 18.628906 C 34.035156 18.773438 33.796875 18.902344 33.527344 19.003906 C 33.257812 19.113281 32.976562 19.160156 32.671875 19.160156 C 31.4375 19.160156 30.820312 18.371094 30.820312 16.800781 L 30.820312 9.390625 L 35.066406 9.390625 L 35.066406 7.292969 L 30.820312 7.292969 L 30.820312 5.007812 C 30.820312 4.304688 30.628906 3.820312 30.246094 3.554688 C 29.867188 3.289062 29.417969 3.15625 28.902344 3.15625 C 28.84375 3.15625 28.78125 3.160156 28.714844 3.167969 C 28.648438 3.175781 28.59375 3.183594 28.558594 3.183594 L 28.390625 3.183594 L 28.390625 16.632812 C 28.390625 17.054688 28.40625 17.480469 28.433594 17.910156 C 28.460938 18.34375 28.539062 18.738281 28.675781 19.105469 C 28.925781 19.777344 29.34375 20.300781 29.929688 20.6875 C 30.515625 21.070312 31.304688 21.265625 32.296875 21.265625 C 32.828125 21.265625 33.320312 21.203125 33.765625 21.09375 C 34.210938 20.980469 34.585938 20.835938 34.890625 20.660156 C 35.195312 20.492188 35.429688 20.300781 35.605469 20.097656 C 35.773438 19.894531 35.863281 19.710938 35.863281 19.539062 C 35.863281 19.289062 35.78125 19.03125 35.617188 18.765625 C 35.457031 18.492188 35.261719 18.214844 35.039062 17.929688 Z M 35.039062 17.929688 "/>
<path style=" stroke:none;fill-rule:nonzero;fill:rgb(0%,47.843137%,20%);fill-opacity:1;" d="M 51.859375 20.945312 L 49.433594 20.945312 L 46.75 13.964844 L 43.808594 20.945312 L 41.640625 20.945312 L 36.988281 7.433594 C 37.195312 7.382812 37.398438 7.332031 37.601562 7.292969 C 37.796875 7.25 38.011719 7.238281 38.242188 7.238281 C 39.136719 7.238281 39.730469 7.734375 40.035156 8.734375 L 42.972656 18.214844 L 45.710938 11.464844 L 44.253906 7.40625 C 44.621094 7.292969 44.996094 7.238281 45.394531 7.238281 C 46.25 7.238281 46.835938 7.699219 47.160156 8.617188 L 50.585938 18.242188 L 52.925781 9.132812 C 53.058594 8.617188 53.253906 8.167969 53.523438 7.796875 C 53.792969 7.421875 54.199219 7.230469 54.75 7.230469 C 55.128906 7.230469 55.519531 7.304688 55.925781 7.460938 Z M 51.859375 20.945312 "/>
<path style=" stroke:none;fill-rule:nonzero;fill:rgb(0%,47.843137%,20%);fill-opacity:1;" d="M 70.0625 14.019531 C 70.0625 14.957031 69.949219 15.867188 69.71875 16.734375 C 69.488281 17.613281 69.125 18.378906 68.621094 19.050781 C 68.113281 19.722656 67.46875 20.261719 66.664062 20.660156 C 65.871094 21.0625 64.898438 21.265625 63.761719 21.265625 C 62.621094 21.265625 61.65625 21.074219 60.867188 20.6875 C 60.078125 20.308594 59.4375 19.785156 58.941406 19.132812 C 58.449219 18.480469 58.082031 17.71875 57.855469 16.851562 C 57.625 15.980469 57.511719 15.0625 57.511719 14.105469 C 57.511719 13.148438 57.644531 12.238281 57.90625 11.375 C 58.175781 10.511719 58.574219 9.757812 59.109375 9.121094 C 59.640625 8.476562 60.300781 7.964844 61.089844 7.585938 C 61.878906 7.203125 62.800781 7.007812 63.875 7.007812 C 64.992188 7.007812 65.945312 7.199219 66.726562 7.585938 C 67.507812 7.964844 68.140625 8.480469 68.632812 9.121094 C 69.132812 9.757812 69.488281 10.503906 69.71875 11.347656 C 69.949219 12.191406 70.0625 13.082031 70.0625 14.019531 Z M 67.523438 14.019531 C 67.523438 13.425781 67.46875 12.835938 67.367188 12.25 C 67.257812 11.667969 67.078125 11.136719 66.808594 10.667969 C 66.542969 10.199219 66.171875 9.820312 65.695312 9.535156 C 65.214844 9.25 64.597656 9.101562 63.832031 9.101562 C 63.105469 9.101562 62.503906 9.242188 62.019531 9.535156 C 61.535156 9.820312 61.144531 10.199219 60.859375 10.667969 C 60.570312 11.136719 60.367188 11.667969 60.246094 12.25 C 60.117188 12.835938 60.058594 13.425781 60.058594 14.019531 C 60.058594 14.617188 60.113281 15.214844 60.214844 15.832031 C 60.320312 16.441406 60.515625 16.992188 60.800781 17.484375 C 61.089844 17.972656 61.46875 18.371094 61.945312 18.691406 C 62.425781 19.011719 63.03125 19.167969 63.78125 19.167969 C 64.542969 19.167969 65.175781 19.011719 65.667969 18.691406 C 66.167969 18.378906 66.542969 17.972656 66.8125 17.484375 C 67.082031 16.992188 67.265625 16.441406 67.375 15.832031 C 67.46875 15.21875 67.523438 14.617188 67.523438 14.019531 Z M 67.523438 14.019531 "/>
<path style=" stroke:none;fill-rule:nonzero;fill:rgb(0%,47.843137%,20%);fill-opacity:1;" d="M 73.042969 7.238281 C 73.480469 7.238281 73.878906 7.347656 74.230469 7.570312 C 74.578125 7.789062 74.796875 8.160156 74.871094 8.679688 C 75.140625 8.277344 75.535156 7.898438 76.070312 7.542969 C 76.601562 7.191406 77.222656 7.011719 77.921875 7.011719 C 78.132812 7.011719 78.355469 7.035156 78.597656 7.074219 C 78.832031 7.117188 79.054688 7.175781 79.265625 7.257812 C 79.472656 7.347656 79.640625 7.460938 79.777344 7.617188 C 79.914062 7.765625 79.980469 7.972656 79.980469 8.222656 C 79.980469 8.527344 79.90625 8.859375 79.75 9.214844 C 79.59375 9.566406 79.449219 9.859375 79.292969 10.089844 C 79.042969 9.859375 78.78125 9.683594 78.488281 9.5625 C 78.207031 9.4375 77.84375 9.371094 77.40625 9.371094 C 77.082031 9.371094 76.769531 9.425781 76.472656 9.527344 C 76.175781 9.636719 75.914062 9.777344 75.691406 9.960938 C 75.460938 10.144531 75.28125 10.347656 75.152344 10.578125 C 75.019531 10.8125 74.957031 11.046875 74.957031 11.300781 L 74.957031 20.84375 L 72.53125 20.84375 L 72.53125 7.265625 L 72.730469 7.265625 C 72.792969 7.265625 72.847656 7.257812 72.90625 7.25 C 72.957031 7.238281 73.003906 7.238281 73.042969 7.238281 Z M 73.042969 7.238281 "/>
<path style=" stroke:none;fill-rule:nonzero;fill:rgb(0%,47.843137%,20%);fill-opacity:1;" d="M 81.738281 20.832031 L 81.738281 0.453125 L 81.914062 0.453125 C 81.953125 0.453125 82 0.445312 82.070312 0.4375 C 82.136719 0.429688 82.195312 0.425781 82.25 0.425781 C 82.785156 0.425781 83.234375 0.5625 83.605469 0.839844 C 83.976562 1.117188 84.164062 1.621094 84.164062 2.347656 L 84.164062 20.832031 Z M 84.820312 13.761719 L 84.820312 12.808594 L 89.726562 7.890625 C 90.257812 7.394531 90.804688 7.144531 91.359375 7.144531 C 91.566406 7.144531 91.757812 7.175781 91.925781 7.246094 C 92.101562 7.3125 92.25 7.386719 92.382812 7.460938 C 92.53125 7.539062 92.679688 7.632812 92.816406 7.746094 L 87.339844 13.183594 L 93.664062 20.804688 C 93.207031 20.972656 92.734375 21.0625 92.234375 21.0625 C 91.859375 21.0625 91.480469 20.980469 91.109375 20.816406 C 90.738281 20.65625 90.402344 20.390625 90.097656 20.03125 Z M 84.820312 13.761719 "/>
<path style=" stroke:none;fill-rule:nonzero;fill:rgb(51.764709%,54.11765%,58.431375%);fill-opacity:1;" d="M 9.375 28.617188 C 9.753906 28.828125 10.007812 29.023438 10.144531 29.207031 C 10.277344 29.390625 10.34375 29.566406 10.34375 29.738281 C 10.34375 29.945312 10.292969 30.191406 10.191406 30.46875 C 10.082031 30.75 9.953125 31.019531 9.804688 31.292969 L 9.410156 31.320312 C 9.085938 30.917969 8.613281 30.566406 8 30.273438 C 7.378906 29.972656 6.71875 29.824219 6.015625 29.824219 C 5.769531 29.824219 5.5 29.851562 5.203125 29.894531 C 4.90625 29.941406 4.628906 30.027344 4.371094 30.152344 C 4.117188 30.273438 3.902344 30.449219 3.730469 30.679688 C 3.5625 30.910156 3.476562 31.195312 3.476562 31.542969 C 3.476562 32.15625 3.746094 32.597656 4.292969 32.867188 C 4.832031 33.132812 5.503906 33.363281 6.300781 33.5625 C 6.867188 33.695312 7.417969 33.859375 7.953125 34.0625 C 8.484375 34.269531 8.957031 34.527344 9.359375 34.839844 C 9.773438 35.15625 10.097656 35.550781 10.332031 36.035156 C 10.566406 36.507812 10.6875 37.105469 10.6875 37.8125 C 10.6875 38.519531 10.546875 39.136719 10.265625 39.667969 C 9.980469 40.199219 9.597656 40.632812 9.125 40.992188 C 8.648438 41.347656 8.09375 41.617188 7.453125 41.792969 C 6.8125 41.976562 6.160156 42.066406 5.472656 42.066406 C 4.804688 42.066406 4.203125 42.011719 3.671875 41.910156 C 3.140625 41.808594 2.695312 41.671875 2.328125 41.523438 C 1.851562 41.332031 1.519531 41.136719 1.332031 40.933594 C 1.136719 40.726562 1.042969 40.523438 1.042969 40.3125 C 1.042969 40.070312 1.109375 39.804688 1.246094 39.539062 C 1.378906 39.273438 1.546875 38.96875 1.757812 38.621094 C 1.890625 38.738281 2.074219 38.878906 2.308594 39.050781 C 2.546875 39.21875 2.828125 39.382812 3.160156 39.539062 C 3.488281 39.695312 3.851562 39.824219 4.25 39.925781 C 4.648438 40.035156 5.074219 40.082031 5.53125 40.082031 C 5.867188 40.082031 6.207031 40.046875 6.523438 39.980469 C 6.847656 39.914062 7.136719 39.804688 7.394531 39.648438 C 7.648438 39.492188 7.859375 39.28125 8.019531 39.015625 C 8.179688 38.746094 8.261719 38.410156 8.261719 38.011719 C 8.261719 37.609375 8.175781 37.277344 8.007812 37.019531 C 7.835938 36.761719 7.609375 36.542969 7.324219 36.375 C 7.042969 36.203125 6.726562 36.0625 6.375 35.960938 C 6.023438 35.855469 5.667969 35.761719 5.308594 35.6875 C 4.761719 35.570312 4.230469 35.421875 3.730469 35.238281 C 3.234375 35.054688 2.789062 34.8125 2.398438 34.503906 C 2.007812 34.199219 1.695312 33.8125 1.460938 33.355469 C 1.222656 32.894531 1.101562 32.34375 1.101562 31.6875 C 1.101562 31.054688 1.238281 30.496094 1.5 30.007812 C 1.761719 29.519531 2.128906 29.117188 2.585938 28.800781 C 3.042969 28.488281 3.5625 28.242188 4.144531 28.078125 C 4.722656 27.914062 5.328125 27.835938 5.957031 27.835938 C 6.679688 27.835938 7.339844 27.910156 7.9375 28.066406 C 8.53125 28.222656 9.011719 28.40625 9.375 28.617188 Z M 9.375 28.617188 "/>
<path style=" stroke:none;fill-rule:nonzero;fill:rgb(51.764709%,54.11765%,58.431375%);fill-opacity:1;" d="M 25.59375 34.851562 C 25.59375 35.789062 25.480469 36.691406 25.25 37.570312 C 25.019531 38.4375 24.65625 39.214844 24.152344 39.886719 C 23.644531 40.558594 23 41.09375 22.195312 41.496094 C 21.394531 41.898438 20.429688 42.101562 19.285156 42.101562 C 18.144531 42.101562 17.179688 41.910156 16.390625 41.523438 C 15.601562 41.144531 14.960938 40.621094 14.464844 39.972656 C 13.972656 39.320312 13.605469 38.5625 13.378906 37.691406 C 13.148438 36.824219 13.035156 35.90625 13.035156 34.949219 C 13.035156 33.988281 13.167969 33.078125 13.433594 32.214844 C 13.695312 31.355469 14.097656 30.601562 14.632812 29.960938 C 15.164062 29.316406 15.824219 28.804688 16.613281 28.425781 C 17.402344 28.046875 18.332031 27.847656 19.398438 27.847656 C 20.515625 27.847656 21.46875 28.039062 22.25 28.425781 C 23.03125 28.804688 23.664062 29.324219 24.15625 29.960938 C 24.648438 30.601562 25.015625 31.347656 25.242188 32.1875 C 25.480469 33.023438 25.59375 33.914062 25.59375 34.851562 Z M 23.050781 34.851562 C 23.050781 34.261719 23 33.671875 22.898438 33.085938 C 22.789062 32.5 22.605469 31.972656 22.335938 31.503906 C 22.066406 31.035156 21.695312 30.652344 21.21875 30.367188 C 20.738281 30.082031 20.121094 29.933594 19.359375 29.933594 C 18.636719 29.933594 18.03125 30.078125 17.539062 30.367188 C 17.050781 30.652344 16.660156 31.035156 16.378906 31.503906 C 16.089844 31.972656 15.886719 32.5 15.757812 33.085938 C 15.636719 33.671875 15.570312 34.261719 15.570312 34.851562 C 15.570312 35.449219 15.621094 36.046875 15.722656 36.667969 C 15.824219 37.277344 16.027344 37.828125 16.308594 38.316406 C 16.59375 38.804688 16.976562 39.207031 17.457031 39.527344 C 17.933594 39.839844 18.542969 40 19.289062 40 C 20.050781 40 20.6875 39.84375 21.179688 39.527344 C 21.675781 39.214844 22.054688 38.804688 22.324219 38.316406 C 22.59375 37.828125 22.777344 37.277344 22.882812 36.667969 C 23 36.046875 23.050781 35.449219 23.050781 34.851562 Z M 23.050781 34.851562 "/>
<path style=" stroke:none;fill-rule:nonzero;fill:rgb(51.764709%,54.11765%,58.431375%);fill-opacity:1;" d="M 28.378906 21.46875 L 28.378906 38.859375 C 28.378906 39.207031 28.394531 39.554688 28.421875 39.90625 C 28.445312 40.261719 28.535156 40.585938 28.675781 40.871094 C 28.816406 41.15625 29.039062 41.386719 29.332031 41.5625 C 29.628906 41.734375 30.050781 41.824219 30.597656 41.824219 C 30.882812 41.824219 31.171875 41.800781 31.46875 41.761719 C 31.765625 41.71875 31.992188 41.671875 32.167969 41.617188 L 32.167969 40.585938 C 31.824219 40.585938 31.5625 40.550781 31.386719 40.484375 C 31.203125 40.417969 31.078125 40.3125 30.988281 40.183594 C 30.902344 40.050781 30.855469 39.886719 30.832031 39.683594 C 30.8125 39.480469 30.808594 39.234375 30.808594 38.949219 L 30.808594 23.167969 C 30.808594 23 30.792969 22.84375 30.773438 22.699219 C 30.132812 22.5625 29.566406 22.339844 29.082031 22.019531 C 28.824219 21.855469 28.59375 21.667969 28.378906 21.46875 Z M 28.378906 21.46875 "/>
<path style=" stroke:none;fill-rule:nonzero;fill:rgb(51.764709%,54.11765%,58.431375%);fill-opacity:1;" d="M 40.183594 39.996094 C 40.695312 39.996094 41.167969 39.925781 41.601562 39.777344 C 42.023438 39.636719 42.394531 39.457031 42.699219 39.242188 C 43.003906 39.03125 43.238281 38.804688 43.414062 38.5625 C 43.582031 38.324219 43.667969 38.105469 43.667969 37.910156 L 43.667969 28.011719 L 43.839844 28.011719 C 43.871094 28.011719 43.925781 28.003906 43.992188 28 C 44.0625 27.992188 44.121094 27.984375 44.183594 27.984375 C 44.714844 27.984375 45.167969 28.128906 45.539062 28.398438 C 45.90625 28.675781 46.097656 29.179688 46.097656 29.90625 L 46.097656 41.667969 L 43.667969 41.667969 L 43.667969 40.421875 C 43.292969 40.859375 42.757812 41.246094 42.070312 41.585938 C 41.390625 41.925781 40.5 42.09375 39.421875 42.09375 C 38.316406 42.09375 37.460938 41.925781 36.855469 41.578125 C 36.242188 41.230469 35.796875 40.796875 35.5 40.253906 C 35.203125 39.714844 35.027344 39.125 34.972656 38.488281 C 34.917969 37.839844 34.886719 37.230469 34.886719 36.632812 L 34.886719 28.011719 L 35.054688 28.011719 C 35.09375 28.011719 35.140625 28.003906 35.210938 28 C 35.277344 27.992188 35.335938 27.984375 35.390625 27.984375 C 35.921875 27.984375 36.375 28.121094 36.746094 28.386719 C 37.117188 28.65625 37.304688 29.152344 37.304688 29.878906 L 37.304688 36.652344 C 37.304688 37.398438 37.359375 37.996094 37.460938 38.4375 C 37.5625 38.882812 37.777344 39.21875 38.101562 39.445312 C 38.382812 39.65625 38.695312 39.796875 39.023438 39.878906 C 39.367188 39.960938 39.753906 39.996094 40.183594 39.996094 Z M 40.183594 39.996094 "/>
<path style=" stroke:none;fill-rule:nonzero;fill:rgb(51.764709%,54.11765%,58.431375%);fill-opacity:1;" d="M 50.304688 39.941406 C 50.167969 39.574219 50.085938 39.179688 50.058594 38.746094 C 50.035156 38.316406 50.011719 37.886719 50.011719 37.46875 L 50.011719 24.015625 L 50.1875 24.015625 C 50.230469 24.015625 50.277344 24.011719 50.34375 24.003906 C 50.410156 23.996094 50.472656 23.988281 50.527344 23.988281 C 51.039062 23.988281 51.488281 24.125 51.867188 24.390625 C 52.246094 24.65625 52.441406 25.144531 52.441406 25.84375 L 52.441406 28.125 L 56.6875 28.125 L 56.6875 30.226562 L 52.441406 30.226562 L 52.441406 37.644531 C 52.441406 39.214844 53.0625 40 54.292969 40 C 54.597656 40 54.878906 39.945312 55.152344 39.84375 C 55.414062 39.742188 55.65625 39.613281 55.863281 39.472656 C 56.074219 39.328125 56.25 39.1875 56.390625 39.058594 C 56.53125 38.921875 56.625 38.824219 56.660156 38.773438 C 56.890625 39.058594 57.085938 39.335938 57.246094 39.605469 C 57.410156 39.871094 57.488281 40.136719 57.488281 40.382812 C 57.488281 40.550781 57.402344 40.742188 57.234375 40.9375 C 57.066406 41.144531 56.824219 41.324219 56.519531 41.503906 C 56.214844 41.671875 55.839844 41.820312 55.394531 41.9375 C 54.949219 42.054688 54.457031 42.105469 53.921875 42.105469 C 52.933594 42.105469 52.144531 41.917969 51.558594 41.53125 C 50.96875 41.136719 50.550781 40.613281 50.304688 39.941406 Z M 50.304688 39.941406 "/>
<path style=" stroke:none;fill-rule:nonzero;fill:rgb(51.764709%,54.11765%,58.431375%);fill-opacity:1;" d="M 59.800781 28.011719 L 59.96875 28.011719 C 60.011719 28.011719 60.058594 28.003906 60.125 28 C 60.191406 27.992188 60.253906 27.984375 60.3125 27.984375 C 60.847656 27.984375 61.296875 28.128906 61.667969 28.398438 C 62.039062 28.675781 62.226562 29.179688 62.226562 29.90625 L 62.226562 39.078125 C 62.226562 39.636719 62.308594 40.027344 62.46875 40.253906 C 62.632812 40.484375 63.007812 40.601562 63.597656 40.601562 L 63.597656 41.632812 C 63.425781 41.6875 63.191406 41.742188 62.902344 41.773438 C 62.605469 41.816406 62.316406 41.835938 62.03125 41.835938 C 61.480469 41.835938 61.054688 41.746094 60.765625 41.578125 C 60.46875 41.40625 60.253906 41.175781 60.109375 40.890625 C 59.96875 40.605469 59.882812 40.289062 59.855469 39.925781 C 59.828125 39.574219 59.8125 39.21875 59.8125 38.882812 L 59.8125 28.011719 Z M 59.800781 28.011719 "/>
<path style=" stroke:none;fill-rule:nonzero;fill:rgb(51.764709%,54.11765%,58.431375%);fill-opacity:1;" d="M 77.964844 34.851562 C 77.964844 35.789062 77.847656 36.691406 77.621094 37.570312 C 77.390625 38.4375 77.027344 39.214844 76.519531 39.886719 C 76.015625 40.558594 75.367188 41.09375 74.566406 41.496094 C 73.769531 41.898438 72.800781 42.101562 71.660156 42.101562 C 70.519531 42.101562 69.550781 41.910156 68.765625 41.523438 C 67.980469 41.144531 67.339844 40.621094 66.847656 39.972656 C 66.347656 39.320312 65.988281 38.5625 65.761719 37.691406 C 65.53125 36.824219 65.417969 35.90625 65.417969 34.949219 C 65.417969 33.988281 65.550781 33.078125 65.816406 32.214844 C 66.085938 31.355469 66.480469 30.601562 67.015625 29.960938 C 67.546875 29.316406 68.207031 28.804688 68.996094 28.425781 C 69.785156 28.046875 70.710938 27.847656 71.773438 27.847656 C 72.898438 27.847656 73.84375 28.039062 74.625 28.425781 C 75.40625 28.804688 76.042969 29.324219 76.539062 29.960938 C 77.03125 30.601562 77.398438 31.347656 77.625 32.1875 C 77.847656 33.023438 77.964844 33.914062 77.964844 34.851562 Z M 75.421875 34.851562 C 75.421875 34.261719 75.367188 33.671875 75.265625 33.085938 C 75.160156 32.5 74.976562 31.972656 74.707031 31.503906 C 74.4375 31.035156 74.066406 30.652344 73.585938 30.367188 C 73.109375 30.082031 72.488281 29.933594 71.726562 29.933594 C 71 29.933594 70.398438 30.078125 69.90625 30.367188 C 69.421875 30.652344 69.03125 31.035156 68.746094 31.503906 C 68.464844 31.972656 68.253906 32.5 68.132812 33.085938 C 68.011719 33.671875 67.945312 34.261719 67.945312 34.851562 C 67.945312 35.449219 68 36.046875 68.101562 36.667969 C 68.207031 37.277344 68.402344 37.828125 68.6875 38.316406 C 68.96875 38.804688 69.355469 39.207031 69.832031 39.527344 C 70.3125 39.839844 70.925781 40 71.667969 40 C 72.429688 40 73.0625 39.84375 73.554688 39.527344 C 74.054688 39.214844 74.429688 38.804688 74.699219 38.316406 C 74.96875 37.828125 75.152344 37.277344 75.257812 36.667969 C 75.367188 36.046875 75.421875 35.449219 75.421875 34.851562 Z M 75.421875 34.851562 "/>
<path style=" stroke:none;fill-rule:nonzero;fill:rgb(51.764709%,54.11765%,58.431375%);fill-opacity:1;" d="M 81.058594 28.074219 C 81.496094 28.074219 81.886719 28.179688 82.242188 28.40625 C 82.59375 28.621094 82.808594 29.003906 82.882812 29.539062 C 83.324219 29.097656 83.914062 28.703125 84.664062 28.363281 C 85.417969 28.019531 86.300781 27.847656 87.335938 27.847656 C 88.628906 27.847656 89.621094 28.132812 90.300781 28.710938 C 90.988281 29.289062 91.433594 30 91.640625 30.863281 C 91.738281 31.246094 91.796875 31.671875 91.808594 32.140625 C 91.832031 32.609375 91.835938 33.066406 91.835938 33.507812 L 91.835938 41.671875 L 89.417969 41.671875 L 89.417969 33.589844 C 89.417969 33.230469 89.410156 32.875 89.402344 32.542969 C 89.398438 32.210938 89.34375 31.898438 89.25 31.605469 C 89.113281 31.109375 88.84375 30.722656 88.425781 30.457031 C 88.007812 30.191406 87.386719 30.054688 86.570312 30.054688 C 85.488281 30.054688 84.625 30.273438 83.976562 30.703125 C 83.328125 31.136719 83.007812 31.597656 83.007812 32.09375 L 83.007812 41.664062 L 80.578125 41.664062 L 80.578125 28.101562 L 80.71875 28.101562 C 80.761719 28.101562 80.808594 28.09375 80.875 28.085938 C 80.9375 28.074219 80.996094 28.074219 81.058594 28.074219 Z M 81.058594 28.074219 "/>
<path style=" stroke:none;fill-rule:nonzero;fill:rgb(51.764709%,54.11765%,58.431375%);fill-opacity:1;" d="M 102.648438 28.617188 C 103.027344 28.828125 103.289062 29.023438 103.417969 29.207031 C 103.546875 29.390625 103.621094 29.566406 103.621094 29.738281 C 103.621094 29.945312 103.566406 30.191406 103.464844 30.46875 C 103.359375 30.75 103.230469 31.019531 103.082031 31.292969 L 102.683594 31.320312 C 102.359375 30.917969 101.886719 30.566406 101.269531 30.273438 C 100.648438 29.972656 99.988281 29.824219 99.285156 29.824219 C 99.035156 29.824219 98.765625 29.851562 98.46875 29.894531 C 98.175781 29.941406 97.898438 30.027344 97.640625 30.152344 C 97.386719 30.273438 97.167969 30.449219 97 30.679688 C 96.824219 30.910156 96.746094 31.195312 96.746094 31.542969 C 96.746094 32.15625 97.015625 32.597656 97.558594 32.867188 C 98.097656 33.132812 98.773438 33.363281 99.570312 33.5625 C 100.140625 33.695312 100.6875 33.859375 101.222656 34.0625 C 101.753906 34.269531 102.226562 34.527344 102.628906 34.839844 C 103.042969 35.15625 103.363281 35.550781 103.601562 36.035156 C 103.835938 36.507812 103.957031 37.105469 103.957031 37.8125 C 103.957031 38.519531 103.816406 39.136719 103.527344 39.667969 C 103.242188 40.199219 102.859375 40.632812 102.386719 40.992188 C 101.910156 41.347656 101.355469 41.617188 100.714844 41.792969 C 100.082031 41.976562 99.414062 42.066406 98.734375 42.066406 C 98.066406 42.066406 97.464844 42.011719 96.941406 41.910156 C 96.40625 41.808594 95.960938 41.671875 95.597656 41.523438 C 95.121094 41.332031 94.789062 41.136719 94.601562 40.933594 C 94.414062 40.726562 94.316406 40.523438 94.316406 40.3125 C 94.316406 40.070312 94.386719 39.804688 94.511719 39.539062 C 94.648438 39.273438 94.816406 38.96875 95.027344 38.621094 C 95.160156 38.738281 95.34375 38.878906 95.578125 39.050781 C 95.816406 39.21875 96.097656 39.382812 96.425781 39.539062 C 96.757812 39.695312 97.121094 39.824219 97.519531 39.925781 C 97.917969 40.035156 98.34375 40.082031 98.800781 40.082031 C 99.136719 40.082031 99.476562 40.046875 99.792969 39.980469 C 100.117188 39.914062 100.40625 39.804688 100.660156 39.648438 C 100.917969 39.492188 101.125 39.28125 101.289062 39.015625 C 101.449219 38.746094 101.53125 38.410156 101.53125 38.011719 C 101.53125 37.609375 101.445312 37.277344 101.273438 37.019531 C 101.105469 36.761719 100.878906 36.542969 100.59375 36.375 C 100.3125 36.203125 99.996094 36.0625 99.644531 35.960938 C 99.292969 35.855469 98.933594 35.761719 98.578125 35.6875 C 98.03125 35.570312 97.5 35.421875 97 35.238281 C 96.496094 35.054688 96.058594 34.8125 95.667969 34.503906 C 95.273438 34.199219 94.964844 33.8125 94.730469 33.355469 C 94.492188 32.894531 94.371094 32.34375 94.371094 31.6875 C 94.371094 31.054688 94.507812 30.496094 94.769531 30.007812 C 95.039062 29.519531 95.398438 29.117188 95.855469 28.800781 C 96.3125 28.488281 96.832031 28.242188 97.410156 28.078125 C 97.992188 27.914062 98.597656 27.835938 99.226562 27.835938 C 99.945312 27.835938 100.605469 27.910156 101.207031 28.066406 C 101.808594 28.222656 102.285156 28.40625 102.648438 28.617188 Z M 102.648438 28.617188 "/>
</g>
</svg>
