<svg width="112" height="113" viewBox="0 0 112 113" fill="none" xmlns="http://www.w3.org/2000/svg">
<path d="M45.3701 38.1181L13.0866 33.3937L27.2598 62.5276L6 90.0866L36.7087 79.063L40.6457 111.346L53.2441 79.063L80.8031 103.472L72.1417 71.189L106 53.0788L67.4173 45.2048L62.6929 6.62207L45.3701 38.1181Z" fill="#4A75FC" stroke="black" stroke-width="4"/>
<ellipse cx="60.1338" cy="31.0316" rx="1.77165" ry="1.9685" fill="black"/>
<ellipse cx="54.2283" cy="39.2992" rx="1.77165" ry="1.9685" fill="black"/>
<ellipse cx="58.559" cy="51.1102" rx="1.77165" ry="1.9685" fill="black"/>
<ellipse cx="73.9134" cy="53.0787" rx="1.77165" ry="1.9685" transform="rotate(-32.4149 73.9134 53.0787)" fill="black"/>
<ellipse cx="82.9602" cy="58.4462" rx="1.77165" ry="1.9685" transform="rotate(-61.0784 82.9602 58.4462)" fill="black"/>
<ellipse cx="59.7609" cy="74.0854" rx="1.77165" ry="1.9685" transform="rotate(-12.6836 59.7609 74.0854)" fill="black"/>
<ellipse cx="68.3968" cy="82.9473" rx="1.77165" ry="1.9685" transform="rotate(-12.6836 68.3968 82.9473)" fill="black"/>
<ellipse cx="44.7748" cy="85.3095" rx="1.77165" ry="1.9685" transform="rotate(-12.6836 44.7748 85.3095)" fill="black"/>
<ellipse cx="40.4441" cy="73.1048" rx="1.77165" ry="1.9685" transform="rotate(-12.6836 40.4441 73.1048)" fill="black"/>
<ellipse cx="25.4835" cy="74.6795" rx="1.77165" ry="1.9685" transform="rotate(-12.6836 25.4835 74.6795)" fill="black"/>
<ellipse cx="36.1134" cy="62.4748" rx="1.77165" ry="1.9685" transform="rotate(-12.6836 36.1134 62.4748)" fill="black"/>
<ellipse cx="29.8142" cy="46.7268" rx="1.77165" ry="1.9685" transform="rotate(-12.6836 29.8142 46.7268)" fill="black"/>
<ellipse cx="42.8063" cy="48.3016" rx="1.77165" ry="1.9685" transform="rotate(-12.6836 42.8063 48.3016)" fill="black"/>
<ellipse cx="50.2865" cy="62.4749" rx="1.77165" ry="1.9685" transform="rotate(33.6593 50.2865 62.4749)" fill="black"/>
<ellipse cx="66.8267" cy="60.9528" rx="1.77165" ry="1.9685" fill="black"/>
</svg>
