<svg xmlns="http://www.w3.org/2000/svg" viewBox="0 0 646 607">
  <path fill="#F5F7F8" d="M128 8c-6.3 17.5 5.3 42.9 7.7 61 5.6 42.8 13.7 86.4 22.5 128.8l5.2 32.2c1.5 7.7 4.7 13.8 4.6 22-.1 7.8-6.6 11.8-11.4 17.1-10.4 11.6-21.2 22.6-31.9 33.7-5 5.3-11.6 9.5-12.7 17.2-4.8 1.3-6.8 5.8-11 8-2.5 9.5-12.1 13.8-17.4 21.5-12 17.5-28 32.4-41.5 48.8C36.6 405 31.7 415.8 24 420v4c-6.9 2-18 13.5-18.7 21-.3 4 2.2 7.2 2.7 11 25 0 49.1-8 73-13.5 20-4.5 40.7-7.3 60.8-11.7 28.3-6.4 56.6-14.8 86.2-14.8 2.3 9.3 9.5 16.8 12 26 10 5 18.5 26 24.7 35.5 18.6 28.3 38.8 56.3 59 83.8 5.7 7.9 11 17.2 16 25.7 2.5 4.4 4.7 10.2 10.3 10.9 11.6 1.4 11.5-8.5 12-16.9.8-10.4 2.6-21.6 4.5-32 7.2-41 12.7-83.7 25-123.3 3-9.3 4.4-18.8 7.7-27.9 1.1-3.1.9-7.8 3.4-10.2 2.9-2.8 8.8-1.5 12.4-1.9 13.2-1.5 26.7-1.7 40-1.7 20 0 40-1.8 60-1 28.3 1.3 56.7 5 85 5v3c8.2 0 35.1 5.8 39.4-3.4 1.4-3 .8-8-1.2-10.6a154 154 0 0 0-26.8-26.1c-6.8-5.1-11.2-12.3-17.5-17.8-23.3-20.4-44.7-42.3-67.1-63.6-8.5-8.1-19.5-26.3-30.8-29.5v-5c-5-2.7-7.7-9.2-13-11 5.2-18.9 9.8-38.3 15.5-57 4-12.5 9.4-25.7 10.5-39h3c.2-27.5 20.4-52.5 21-80h3c0-3.7 1-9.2-.6-12.7-4.9-10.5-25 4.6-31.4 6.7v4c-8.7 1.5-15.4 8.9-24 10-3.5 6-13.9 8.3-19.7 12-15 9-31.4 15.8-47.1 23.4-7.7 3.7-15.4 10-24.2 10.6-2.8 5.1-10.4 7-15.8 8.2-3.5 1-6.3 4-10.1 3.5C348 111.5 335.8 97 320 96c-1.9-5.2-9-6.7-13.8-8.4-10-3.5-20.3-8.6-30.2-12.8-21.5-9.3-43.5-18.3-64.5-28-15.8-7.1-30.2-17-46.3-23.2C151.2 18.2 144 6 128 8Z"/>
  <path fill="#fff" d="M168 80h-3v8h3v4c12.7 4.5 22-8 22-20-9.2-2.5-20-6.4-22 8m312-8c-3.6 8-3 15.3-3 24h3v4c7 1.8 9.6.7 16-2 0-5 2-14.6-2-18 1.5-9.1-7.4-8.8-14-8m-240 9c-1.2 4.3-5.2 8-3.3 12.7C242 107 267.8 119 265 96c-10.1-4.8-12.5-15-25-15m126 58c9.2 0 17.5.8 26-3 0-7.4-1.7-9.8-5-16-7.2 0-23.2-1.3-24.3 9-.4 3.4 2.2 7 3.3 10m93 21c0-5.4-1.6-9-3-14-12.7 0-23.4 8-30.8 18.6-4.5 6.5-1.9 15.4 6.8 15.3 11.5-.1 17-16.4 27-19.9m-254-8c0 10.3 4.9 16.3 13 22.6 3.6 2.8 11.6 3.6 14.4-1 5.2-8.1-7.3-23.7-15.4-25.3-5-1-8 1.7-12 3.7m83 51c3.3 0 7.7.7 10.8-.6 10.1-4.4.2-26.4.2-34.4h-3v-4c-3.2-.7-6.6-3-10-2-12.6 3.8-1 32.9 2 41m104 35c2.2-8.3 0-13.8 0-22-7-4.2-4.3-15.7-11.1-19-5.7-2.7-12-.3-12.8 6-1.1 9.2 4.4 16 7.2 24 1.4 4.1 1 8.5 5.1 11 3.3 2 8 .3 11.6 0m-155 10c-2.9 13 2 24 3 37 4.7 1.8 9.9 4.7 14.5.9 4.1-3.5 2.4-11.3 1.8-15.9-1.7-13.2-3.4-25-19.3-22m91 34.7c-6.5 2.7-4 9-5.5 14.3-1.5 4.9-17 32.1 3.4 24.4 9.9-3.7 15.8-15.4 16-25.4.3-8.2-4-17.2-13.9-13.3M500 312h-3c-.5 12.3 3.7 13.9 15 13 4.2-9.2 9.5-20 4.4-30.3-3.4-7-18.4-19-22-5.4-1.8 7.2 5.6 14.7 5.6 22.7m-77.6-7.2c-4.6 1.8-3.2 5.5-5.4 8.9-2.2 3.2-6.9 2.5-8.4 6.6-4.2 10.6 7 16.2 15.8 12.6 13-5.2 16.5-35.7-2-28.1M155 352c9.9 4.5 14.8 9.5 26.8 5.2 6.8-2.5 14.7-11.6 8.6-18.9-5.2-6.2-12.1.4-17.5 1.3-7 1.3-16.9-6.1-17.8 6.4l-.1 6m429 8c.3-4 1.2-8-.1-11.8-3-8.6-18.1-12-24.8-6.4-5.6 4.6-5.6 14 1.3 17.3 3.1 1.5 7.3 1 10.6 1.9 4.8 1.2 8.3-.2 13-1m-488.5 9c-4 3-3.3 10-1.2 13.7 3.6 6.7 22 21.1 30 16 4.7-3 4.1-9.2 1.7-13.6-3.6-6.6-22.6-21.6-30.5-16m179.8 3c-6 3.8-2.6 13 .1 17.7 5.6 9.7 25.5 31.8 38.5 22.6 16.1-11.5-12.2-19.8-18-25.2-4-3.8-4.7-10-8.7-13.5-2.8-2.4-8.5-3.8-11.9-1.7m97.7 71c-.2-21-25.6-10.8-28.7 3.2-1.5 6.8 6.3 15.4 13.1 11.1 6-3.7 9.2-11.4 15.6-14.3m-65 29c-1 2.5-2.7 5.2-2.7 8 0 8.7 10.9 27 21.3 18.1 6.3-5.3-.2-21.4-5.9-25.1-3.8-2.5-8.5-1.5-12.7-1Z"/>
</svg>