<svg xmlns="http://www.w3.org/2000/svg" width="161" height="30" fill="none">
  <clipPath id="a">
    <path d="M0 0h160.7v30H0z"/>
  </clipPath>
  <g fill="#000" clip-path="url(#a)">
    <path d="M6 28.5.3 10.9 0 10c0-.7.6-1.4 1.4-1.4.8 0 1.3.4 1.5 1.3l5 15.5 4.8-15.6c.3-.8.7-1.2 1.5-1.2h.1c.9 0 1.3.4 1.6 1.2l4.8 15.6 5-15.7c.1-.6.5-1.1 1.3-1.1s1.5.6 1.5 1.4l-.2.8-6 17.7c-.3.9-.9 1.4-1.5 1.4h-.1c-.8 0-1.4-.5-1.6-1.4l-4.9-15.2-4.8 15.2c-.3.9-.8 1.4-1.6 1.4s-1.4-.5-1.7-1.4zM40 30c-5.3 0-9.6-4.4-9.6-10.8 0-6 4-10.8 9.3-10.8 5.7 0 9 5 9 10.5 0 .9-.6 1.4-1.3 1.4h-14c.3 4.6 3.3 7 6.7 7a8 8 0 0 0 5.7-2.4c.2-.2.4-.4.8-.4.7 0 1.2.7 1.2 1.3 0 .4-.1.8-.4 1-1.9 2-4 3.2-7.4 3.2zm5.8-12c-.3-3.8-2.4-7-6.2-7-3.4 0-6 3-6.3 7zm6.7-16.5c0-.8.6-1.5 1.4-1.5s1.5.7 1.5 1.5V13c1.5-2.5 3.8-4.7 7.4-4.7 4.6 0 9.2 4 9.2 10.8 0 7-4.5 10.9-9.2 10.9-3.6 0-6-2.1-7.4-4.4V28c0 .8-.6 1.5-1.5 1.5-.8 0-1.4-.7-1.4-1.5zM69 19.2c0-5-3.1-8.1-6.9-8.1-3.5 0-7 3.3-7 8 0 4.9 3.5 8.1 7 8.1 3.8 0 6.9-3 6.9-8zm11.8 0c0-6 4.3-10.9 10-10.9 3.2 0 5.3 1.3 7 3 .3.2.5.7.5 1.1 0 .9-.6 1.5-1.3 1.5-.4 0-.7-.2-1-.4-1.4-1.4-3-2.5-5.2-2.5-4 0-7 3.6-7 8v.2c0 4.5 3 8 7.1 8 2.2 0 4-1.1 5.4-2.5.2-.2.5-.4.8-.4.7 0 1.4.7 1.4 1.4 0 .4-.2.8-.4 1-1.8 2-4 3.4-7.3 3.4-5.7-.1-10-5-10-10.9zm20.2 0c0-6 4.2-10.9 10-10.9 5.9 0 10.1 4.9 10.1 10.8 0 6-4.3 10.9-10.1 10.9s-10-4.9-10-10.8zm17.2 0c0-4.5-3.1-8.2-7.2-8.2-4.2 0-7.1 3.7-7.1 8v.2c0 4.4 3 8 7.2 8 4.1 0 7-3.6 7-8zm6.6-9.1c0-.9.7-1.5 1.5-1.5s1.4.6 1.4 1.5v2.1c1.3-2 3-4 6.3-4 3.1 0 5.1 1.8 6.2 4.2 1.4-2.3 3.5-4.2 6.9-4.2 4.4 0 7.1 3.3 7.1 8.4v11.6c0 .9-.6 1.6-1.4 1.6s-1.5-.7-1.5-1.6V17.4c0-4-1.8-6.2-5-6.2-3 0-5.3 2.3-5.3 6.4v10.7c0 .9-.7 1.6-1.5 1.6s-1.4-.7-1.4-1.6v-11c0-4-2-6.2-5-6.2s-5.4 2.7-5.4 6.6v10.6c0 .8-.5 1.5-1.4 1.5-.8 0-1.5-.7-1.5-1.5zM76.5 29.8c1.2 0 2.1-1 2.1-2.3s-1-2.3-2.1-2.3c-1.2 0-2.2 1-2.2 2.3s1 2.3 2.2 2.3zm79.9-19.2c0-.4 0-.8.3-1.1.1-.3.4-.6.8-.9a2 2 0 0 1 1-.3l1.1.3c.3.2.6.5.8.9a2.5 2.5 0 0 1 0 2.3l-.7.8c-.4.2-.7.4-1.1.4s-.8-.2-1.1-.4c-.4-.1-.6-.5-.8-.8l-.3-1.2zm.3 0c0 .4 0 .7.3 1 .1.3.4.5.6.7.3.2.6.3 1 .3.3 0 .6 0 .9-.3l.7-.7c.2-.3.2-.6.2-1l-.2-1c-.2-.3-.4-.6-.7-.7l-1-.3c-.3 0-.6 0-.9.3l-.6.7a2 2 0 0 0-.3 1zm2.7-.6-.1.5-.4.2.7 1.2h-.5l-.5-1h-.4v1h-.4V9.2h.7c.3 0 .5 0 .7.2.2 0 .2.3.2.6zm-1.2.5h.3l.3-.1.1-.4-.1-.3h-.7v.8z"/>
  </g>
</svg>